<svg xmlns="http://www.w3.org/2000/svg" xmlns:xlink="http://www.w3.org/1999/xlink" viewBox="0 0 102.8 98.42"><defs><style>.cls-1{fill:none;}.cls-2{clip-path:url(#clip-path);}.cls-3{fill:#f3734b;}.cls-4{fill:#4554a5;}.cls-5{font-size:10px;fill:#ededed;font-family:Roboto-Bold, Roboto;font-weight:700;}.cls-6{letter-spacing:-0.01em;}</style><clipPath id="clip-path"><path class="cls-1" d="M72.33,0h-49A13.22,13.22,0,0,0,10.08,13.22V42.38A15.13,15.13,0,0,0,25.21,57.5H56.83l-7.25,14L73,58.54c5.46-3.54,9.29-4.74,9.29-9.29V10A10,10,0,0,0,72.33,0ZM50,13.55l.89,3.07.06.29h0l1-3.36h1.53l-2.14,6.07a2.8,2.8,0,0,1-.61,1,1.56,1.56,0,0,1-1.16.39,1.78,1.78,0,0,1-.33,0l-.37-.08.17-1,.14,0h.13a.78.78,0,0,0,.54-.17,1.15,1.15,0,0,0,.29-.43l.17-.41-1.87-5.28Zm-5,0h.77V12.26H47.2v1.29h.89v1H47.2v2.69a.62.62,0,0,0,.13.44.46.46,0,0,0,.34.13h.2l.19,0,.12,1a2.9,2.9,0,0,1-.42.11,2.5,2.5,0,0,1-.44,0,1.52,1.52,0,0,1-1.14-.41,1.78,1.78,0,0,1-.4-1.28v-2.7H45Zm-2.11-2.33h1.43v1.07H42.89Zm0,2.33h1.43v5.28H42.89Zm-2.67-2.33h1.43v7.62H40.22Zm-2.67,0H39v1.07H37.55Zm0,2.33H39v5.28H37.55ZM23.62,16.38a2.34,2.34,0,0,1-.8,1.88,3.07,3.07,0,0,1-2.07.68,3,3,0,0,1-2.05-.68,2.35,2.35,0,0,1-.79-1.88V11.72h1.43v4.65a1.46,1.46,0,0,0,.38,1.09,1.4,1.4,0,0,0,1,.38,1.43,1.43,0,0,0,1-.38,1.45,1.45,0,0,0,.39-1.09V11.72h1.43Zm6.58-2.3H28.81a1.4,1.4,0,0,0-.33-1,1.37,1.37,0,0,0-1-.33,1.15,1.15,0,0,0-1,.52,2.28,2.28,0,0,0-.36,1.33V16a2.21,2.21,0,0,0,.38,1.34,1.23,1.23,0,0,0,1.05.52,1.25,1.25,0,0,0,1-.33,1.46,1.46,0,0,0,.31-1h1.38v0a2.23,2.23,0,0,1-.69,1.78,2.83,2.83,0,0,1-2,.64,2.73,2.73,0,0,1-2.07-.82A3,3,0,0,1,24.69,16V14.58a3,3,0,0,1,.77-2.13,2.61,2.61,0,0,1,2-.83,3,3,0,0,1,2,.63A2.19,2.19,0,0,1,30.21,14Zm.85.5a3,3,0,0,1,.77-2.13,2.61,2.61,0,0,1,2-.83,3,3,0,0,1,2,.63A2.19,2.19,0,0,1,36.57,14v0H35.18a1.4,1.4,0,0,0-.33-1,1.37,1.37,0,0,0-1-.33,1.15,1.15,0,0,0-1,.52,2.28,2.28,0,0,0-.36,1.33V16a2.21,2.21,0,0,0,.38,1.34,1.23,1.23,0,0,0,1.05.52,1.25,1.25,0,0,0,1-.33,1.46,1.46,0,0,0,.31-1h1.38v0a2.23,2.23,0,0,1-.69,1.78,2.83,2.83,0,0,1-2,.64,2.73,2.73,0,0,1-2.07-.82A3,3,0,0,1,31,16Zm11.36,10.5H34.66v4.7h6.55v2.64H34.66V39.5H31.24V22.44H42.41ZM53.95,39.5l-1.16-3.68H47.26L46.11,39.5H42.53l5.75-17.06h3.5L57.52,39.5Zm17.82,1.85-2.5-2.46a7,7,0,0,1-1.68.64,8,8,0,0,1-1.89.22,6.79,6.79,0,0,1-5.13-2.05,7.19,7.19,0,0,1-2-5.19V29.43a7.21,7.21,0,0,1,2-5.19,6.75,6.75,0,0,1,5.12-2.06,6.87,6.87,0,0,1,5.17,2.06,7.15,7.15,0,0,1,2,5.19V32.5a8,8,0,0,1-.36,2.43,7.18,7.18,0,0,1-1,2.05L74,39.52Z"/></clipPath></defs><title>Asset 1</title><g id="Layer_2" data-name="Layer 2"><g id="Layer_1-2" data-name="Layer 1"><g class="cls-2"><path class="cls-3" d="M6.33,73.21,102.71,10.1s.42,80.1-.58,80-47.7,8.33-47.7,8.33Z"/><polygon class="cls-4" points="102 0 0 82 12 0 102 0"/></g><text class="cls-5" transform="translate(17.42 67.81)">B<tspan class="cls-6" x="6.37" y="0">O</tspan><tspan x="13.12" y="0">T</tspan></text></g></g></svg>