<svg xmlns="http://www.w3.org/2000/svg" viewBox="0 0 200.01 200.39"><defs><style>.cls-1{fill:#20376b;}.cls-2{fill:#23386d;}.cls-3{fill:#2b4591;}.cls-4{fill:#243d7c;}.cls-5{fill:#4554a5;}.cls-6{fill:#415ca9;}.cls-7{fill:#253b7b;}</style></defs><title>Asset 1</title><g id="Layer_2" data-name="Layer 2"><g id="Layer_1-2" data-name="Layer 1"><rect class="cls-1" width="200" height="200"/><polygon class="cls-2" points="68.67 0 52.51 56.33 0 50.17 0.01 0 68.67 0"/><polygon class="cls-3" points="113.64 123.17 200.01 190.24 200 200 126.72 200 81.34 164.76 113.64 123.17"/><polygon class="cls-4" points="200 0 200 137.81 120.5 134 152.92 0 200 0"/><polygon class="cls-3" points="107.36 90.9 200.01 162.85 200.01 183.2 97.5 103.6 107.36 90.9"/><polygon class="cls-3" points="90.11 59.69 200 145.03 200 153.66 85.93 65.08 90.11 59.69"/><polygon class="cls-5" points="145.87 0 48.04 125.06 6.56 92.61 79.01 0 145.87 0"/><polygon class="cls-5" points="173.34 0 80.33 118.9 67.66 108.99 152.92 0 173.34 0"/><polygon class="cls-5" points="191.2 0 111.6 101.76 106.23 97.56 182.54 0 191.2 0"/><polygon class="cls-6" points="77.45 164.69 49.22 200 0.01 200 0.01 177.22 36.31 131.8 77.45 164.69"/><polygon class="cls-6" points="109.8 158.87 76.92 200 56.02 200.39 97.24 148.83 109.8 158.87"/><polygon class="cls-6" points="141.25 142.06 94.93 200 85.93 200.34 135.93 137.81 141.25 142.06"/><polygon class="cls-7" points="39.88 123.2 0 92.25 0 25.57 72.17 81.6 39.88 123.2"/><polygon class="cls-7" points="46.16 155.47 0 119.63 0.01 99.28 56.02 142.77 46.16 155.47"/><polygon class="cls-7" points="63.41 186.67 0 137.44 0.24 129 67.59 181.29 63.41 186.67"/></g></g></svg>