<svg xmlns="http://www.w3.org/2000/svg" xmlns:xlink="http://www.w3.org/1999/xlink" viewBox="0 0 800 800"><defs><style>.cls-1{fill:none;}.cls-2{fill:#f69e34;}.cls-3{fill:#d3822a;}.cls-4{clip-path:url(#clip-path);}.cls-5{fill:#fff;}.cls-6{fill:#ddd;}.cls-16,.cls-7{fill:#b0aeae;}.cls-8{clip-path:url(#clip-path-2);}.cls-9{clip-path:url(#clip-path-3);}.cls-10{fill:#f8d8b7;}.cls-11{fill:#dbbca1;}.cls-12{fill:#f0efef;}.cls-13{clip-path:url(#clip-path-4);}.cls-14{clip-path:url(#clip-path-5);}.cls-15{fill:#2d2d2d;}.cls-16,.cls-17{opacity:0.62;}.cls-17{fill:#9e9d9e;}.cls-18{fill:#462d15;opacity:0.16;}</style><clipPath id="clip-path"><path class="cls-1" d="M519.12,467.88S400,509.8,400,531.13s19-4.33,37,0-4,62.33-13,69.33,49,25.95,121.52-100.69c0,0-3.53-58.43-56.53-55s-71-.14-71-.14v53.53l65.53-15.31Z"/></clipPath><clipPath id="clip-path-2"><path class="cls-1" d="M280,467.88s119.12,41.92,119.12,63.25-19-4.33-37,0,4,62.33,13,69.33C389,611.2,324,622.67,253.65,499.77c0,0,3.53-58.43,56.53-55s71-.14,71-.14v53.53l-65.53-15.31Z"/></clipPath><clipPath id="clip-path-3"><path class="cls-1" d="M279.67,503s43.26-9.27,44-36.67S311.67,411.67,309,403l200.5-3s-40.5,58.33-33.16,80.33S587,525,609,535.67H192.33S266.89,507,279.67,503Z"/></clipPath><clipPath id="clip-path-4"><path class="cls-1" d="M315.64,482.82,280,467.88s119.12,41.92,119.12,63.25-19-4.33-37,0,4,62.33,13,69.33-49,25.95-121.52-100.69c0,0,3.53-58.43,56.53-55"/></clipPath><clipPath id="clip-path-5"><path class="cls-1" d="M483.53,482.82l35.59-14.95S400,509.8,400,531.13s19-4.33,37,0-4,62.33-13,69.33,49,25.95,121.52-100.69c0,0-3.53-58.43-56.53-55"/></clipPath></defs><title>Asset 1</title><g id="Layer_2" data-name="Layer 2"><g id="Layer_1-2" data-name="Layer 1"><rect class="cls-2" width="800" height="800"/><polygon class="cls-3" points="106 704 210.18 800 800 800 800 264.64 523 76 383.59 451.09 284.39 546.09 106 704"/><g class="cls-4"><path class="cls-5" d="M531.5,453.63l29,45s-20.5,63.53-22,67.51S431,621.63,431,621.63l-26-13.5,12.5-62.5,86-95Z"/><path class="cls-6" d="M468,435.13s50,5.43,52.5,9.47,9.5,19,4.5,26-70.5,63.5-89,75.5-51,18.5-54.5,20,30.5-131,30.5-131Z"/><path class="cls-7" d="M466.5,426.13s34,15,32,25-33,60-104.5,76-34.5-44.5-34.5-44.5l58-56.5Z"/></g><g class="cls-8"><path class="cls-5" d="M267.67,453.63l-29,45s20.5,63.53,22,67.51,107.5,55.49,107.5,55.49l26-13.5-12.5-62.5-86-95Z"/><path class="cls-6" d="M331.17,435.13s-50,5.43-52.5,9.47-9.5,19-4.5,26,70.5,63.5,89,75.5,51,18.5,54.5,20-30.5-131-30.5-131Z"/><path class="cls-7" d="M332.67,426.13s-34,15-32,25,33,60,104.5,76,34.5-44.5,34.5-44.5l-58-56.5Z"/></g><g class="cls-9"><polygon class="cls-10" points="180.33 527.67 339 454.47 521.61 442.33 663 527.67 487.67 582.33 180.33 527.67"/><path class="cls-11" d="M299.67,420.33,560.33,387s-30.92,66.17-92,105.33S316,543.67,299.67,420.33Z"/></g><path class="cls-12" d="M106,704S62,564,262,505l136.75,30.67,141-26S644,537,681,592c0,0,23,26,15,112C696,704,378,841,106,704Z"/><g class="cls-13"><path class="cls-5" d="M267.67,453.63l-29,45s20.5,63.53,22,67.51,107.5,55.49,107.5,55.49l26-13.5-12.5-62.5-86-95Z"/><path class="cls-6" d="M331.17,435.13s-50,5.43-52.5,9.47-9.5,19-4.5,26,70.5,63.5,89,75.5,51,18.5,54.5,20-30.5-131-30.5-131Z"/><path class="cls-7" d="M332.67,426.13s-34,15-32,25,33,60,104.5,76,34.5-44.5,34.5-44.5l-58-56.5Z"/></g><g class="cls-14"><path class="cls-5" d="M531.5,453.63l29,45s-20.5,63.53-22,67.51S431,621.63,431,621.63l-26-13.5,12.5-62.5,86-95Z"/><path class="cls-6" d="M468,435.13s50,5.43,52.5,9.47,9.5,19,4.5,26-70.5,63.5-89,75.5-51,18.5-54.5,20,30.5-131,30.5-131Z"/><path class="cls-7" d="M466.5,426.13s34,15,32,25-33,60-104.5,76-34.5-44.5-34.5-44.5l58-56.5Z"/></g><path class="cls-10" d="M535,277c0,125.71-59.1,195-132,195-33.61,0-64.28-14.73-87.58-42.91C288.17,396.13,271,344.76,271,277c0-21.08-3.11-44,0-63.33,15.44-96.16,71.32-164.29,132-164.29,59.23,0,118.89,64.3,135.6,157C542.46,227.72,535,253.43,535,277Z"/><path class="cls-10" d="M271,265s-8.67-6.67-16,0-17.88,75.75,29.39,105.54Z"/><path class="cls-10" d="M534.72,262s11.54-14.39,15.58-11.71,18.59,96.42-28.68,120.22Z"/><path class="cls-15" d="M463,66s-21-42.74-98-34.37S254,117.33,238,131c0,0,35.33-29.33,39.67-37.33,0,0-50,26-30.67,130,0,0-1.33-46.67,2-56.67,0,0,0,93.33,22,131.33,0,0-3.54-59.45,0-66.67,0,0-2,14.66.67,22.33,0,0,27.33-59.66,42-71,0,0-8.68,24.9-13.33,24.67,0,0,92-30,119.33-65.33,0,0-6.67,18.67-19.67,29.33,0,0,42.33-24.67,56.33-43.33,0,0,23.33,43.33,44,58,0,0-14.67-22.67-15.33-30,0,0,43.33,40.76,46.07,65.32,0,0,2.73-23.32,0-29.32,0,0,9.83,70.67,1.21,98,0,0,20.05-29.33,22.05-63.33,0,0,2,10,6,16.67,0,0-6.67-72.67-8.67-103.33,0,0,6,5.33,8.67,9.33,0,0-21.33-65.33-53.33-77.33,0,0,10,1.17,16,3.67C523,76,488.5,52,463,66Z"/><path class="cls-16" d="M397.77,691c-1.51-3.12-2.53-9.59-.89-18.39.73-3.89,2.47-6.67,4.16-9.36,2.28-3.63,4.25-6.77,3.73-12.53-.48-5.27-3.75-7.25-6.91-9.16-2.55-1.54-5.44-3.29-5.09-6.82.26-2.63,2.11-6.71,4.24-11.43,2.38-5.26,5.08-11.23,5.42-15,.36-4-3.68-12.73-12-25.81l-.82-1.3c-1.89-3,.41-8.09,4.32-16.1,2-4.16,4.81-9.86,4.53-11.76-.81-5.35-3-14.47-3-14.57l4.38-1c.09.38,2.21,9.4,3,14.92.46,3.06-1.55,7.48-4.93,14.4-1.87,3.84-5,10.27-4.51,11.81l.76,1.19c6.22,9.78,13.29,21.87,12.69,28.63-.4,4.53-3.27,10.86-5.8,16.45-1.81,4-3.68,8.12-3.87,10-.06.65,1.07,1.39,2.94,2.53,3.33,2,8.37,5.07,9.06,12.6.66,7.27-2,11.55-4.4,15.33-1.53,2.44-3,4.74-3.55,7.79-1.54,8.28-.4,13.71.52,15.61Z"/><circle class="cls-17" cx="415.51" cy="630.5" r="6.17"/><circle class="cls-17" cx="409.34" cy="576.83" r="6.17"/><rect class="cls-18" x="399.13" width="400.87" height="800"/></g></g></svg>